<?xml version="1.0" encoding="UTF-8"?>
<svg id="Layer_1" data-name="Layer 1" xmlns="http://www.w3.org/2000/svg" version="1.1" viewBox="0 0 1024 1024">
  <defs>
    <linearGradient id="iconGrad" x1="0" y1="0" x2="1024" y2="1024" gradientUnits="userSpaceOnUse">
      <stop offset="0%" stop-color="#B8AEFF"/>
      <stop offset="50%" stop-color="#6C63FF"/>
      <stop offset="100%" stop-color="#3D35CC"/>
    </linearGradient>
  </defs>
  <rect width="1024" height="1024" fill="white"/>
  <path fill="url(#iconGrad)" d="M478.6,942.4c-20.8-10.6-42.3-19.9-62.2-32-46.5-28.1-83.5-65.7-108.6-114.4-3.4-6.6-8.8-14.3-2.1-21.1,6.6-6.6,13.8-.6,20.2,2.4,45.5,21.6,93.7,29.3,143.2,24.9,129.2-11.4,230.3-100.8,256.2-224.4,8.6-41.2,5.5-82.4-9.2-122.3-.7-1.9-2.2-3.9-2.1-5.7.2-3.6.3-8.5,2.5-10.2,2.1-1.7,7.9-1.5,10.3.2,11.8,8.7,24.1,17.2,34.1,27.7,37.4,39.3,60.4,86.5,70.8,139.4,12.6,64.2,4.5,126.1-23.4,185.4-.3.7-.4,1.6-1,4.3,18.5-18.6,33.1-37.7,46.2-58.2,17.8-27.9,30.1-58.2,39.8-89.7,3.4-11,10.8-15.6,21.2-14,8.9,1.3,16.5,9.1,16.2,18.2-.2,6.6-2.1,13.3-3.9,19.8-17.2,62.4-46.9,118.1-89.6,166.8-60.6,69.2-134.9,117.2-222.7,144.3-52.8,16.3-107,22.6-161.9,18.5-96.9-7.1-185.1-38.9-261.9-99.3-83.2-65.4-138.6-149.3-162.9-252.7-9.7-41.2-11.5-83.1-8.2-125.4,4.5-58.8,20-114.1,48.5-165.7,23.9-43.3,54.1-81.7,91.1-115.3-4.8-6.7-9.6-13.4-13.2-18.3-10.4,2.3-19.8,6.9-28.7,6-14.5-1.5-24.2-11.1-27.5-26-3.1-14.4,2.9-25.4,14-33.7,19.8-14.8,39.9-29.1,59.9-43.6,3.1-2.2,6.2-4.5,9.3-6.7,18.8-13.5,35.1-9.7,48.1,4,12.2,13,10.3,32.3-4.3,47.7,5.1,5.5,10.3,10.9,15.7,16.7,62-37.6,128.9-60.1,201.7-67.8v-23.9c-8.3,0-15.9-.7-23.4.1-19.4,2.3-34.2-11.5-31.7-31.2,1-7.5,0-15.3.2-23,.3-13,10.6-23.6,23.6-23.7,54-.1,107.9-.1,161.9,0,13.5,0,24.2,8.6,25.4,22,1.1,12.5.6,25.3-.9,37.8-1.2,10.1-11.8,17.6-22.3,17.9-5.3.2-10.6,0-15.9,0-5,0-10,0-15.5,0v24.1c18.8,3.7,37.8,6.8,56.5,11.2,88.4,20.7,164.4,63.5,227,129.3,36.8,38.7,66.2,82.3,86.9,131.6,4.5,10.6,1.5,20.8-6.6,26.7-8.5,6.2-19.3,6.3-26.8-.7-3.5-3.3-6.2-7.8-8.3-12.2-22.7-45.7-51.9-86.8-89-121.9-61.1-57.7-132.4-95.1-215.4-110.5-34.7-6.4-69.7-8.9-104.6-6.4-94.6,7-179.2,39.9-251.7,101.7-61.1,52.1-103.8,116.1-122.5,195-9.6,40.4-11.6,81.2-8.3,122.6,5.9,73.4,32.9,138,78.9,195,8.6,10.7,18.3,20.6,28.1,31.5.8-2,1.3-2.7,1.3-3.5.7-45.1,1.2-90.2,2-135.3.1-5.7-1.5-8.9-6.6-11.7-31.5-17.2-42.2-40.9-36.8-77.1,2.5-16.8,2.9-34,4.4-51,1.5-17.6,3-35.1,4.9-52.7,1-9,7.2-14.4,14.2-13.7,8.3.9,12.8,6.5,12.6,16.1-.6,30.1-1.2,60.1-1.9,90.2,0,2.1,0,4.1,0,6.2,0,5.8,2.7,10.8,8.3,10.1,3-.4,7.4-6.2,7.6-9.7,1-21.8.9-43.6,1.3-65.4.2-10.6.4-21.2.6-31.8.2-9.2,6.5-16.1,14.3-15.9,7.9.2,13.9,7.1,14.1,16.2.6,31.2,1.1,62.5,1.5,93.7,0,6.2.6,13.4,8.2,13.1,7.8-.3,8.4-7.5,8.2-14.2-.8-31.2-1.3-62.5-2-93.7-.1-6.6,2.2-12.2,8.7-13.5,4.3-.9,10.4-.2,13.5,2.5,3.3,2.8,5.3,8.6,5.7,13.2,3.3,37.5,6.5,75,8.9,112.6,1.8,27.8-9.8,49.1-34.5,62.5-5.7,3.1-8.3,6.3-7.9,13.4,2.7,49.4,4.9,98.9,7.1,148.3.4,9.4,0,18.9,1,28.3.5,4.1,2.7,9.4,5.9,11.6,53,36.7,110.3,63.3,174.5,72.8,20,3,40.2,4.3,60.4,6.5-.1-.4-.2-.8-.4-1.2Z"/>
  <path fill="url(#iconGrad)" d="M419.8,546c.1-45.2,42.2-78.6,86.4-68.8,2.8.6,7.3-.9,9.3-3,31.5-34.3,62.7-68.8,93.9-103.2,22-24.2,43.9-48.4,66.1-72.4,8.2-8.9,18.3-11.4,29.7-6.8,13.2,5.3,17.9,19.6,9.5,31.1-17.7,24.2-36,48-54.1,71.8-32.2,42.3-64.5,84.5-96.6,127-1.6,2.2-2.3,6-1.8,8.7,9.1,45.3-22.8,87.1-68.7,88.1-41,.9-74.7-32-73.8-72.3Z"/>
  <path fill="url(#iconGrad)" d="M847.9,508.4c12-7.7,25.1-13.2,33.8-22.7,8.5-9.2,12.5-22.4,17.5-32,5,9.7,9.1,23.2,17.6,32.6,8.4,9.3,21.2,14.6,32.1,21.6-30.9,5.3-43.2,28.7-49.8,58-6.1-29.9-21.5-50.8-51.3-57.5Z"/>
  <path fill="url(#iconGrad)" d="M963.2,547.8c4.8,24.6,17.5,41.2,42.7,48.1-24.9,5.8-37.9,21.6-42.7,46.4-4.9-25.2-19.3-40.2-44.5-46.6,25.6-6.1,39.2-22.8,44.4-48Z"/>
</svg>
